<?xml version="1.0" standalone="no"?>
<!DOCTYPE svg PUBLIC "-//W3C//DTD SVG 20010904//EN"
 "http://www.w3.org/TR/2001/REC-SVG-20010904/DTD/svg10.dtd">
<svg version="1.0" xmlns="http://www.w3.org/2000/svg"
 width="300.000000pt" height="300.000000pt" viewBox="0 0 300.000000 300.000000"
 preserveAspectRatio="xMidYMid meet">
<metadata>
Created by potrace 1.11, written by Peter Selinger 2001-2013
</metadata>
<g transform="translate(0.000000,300.000000) scale(0.100000,-0.100000)"
fill="#000000" stroke="none">
<path d="M1759 2503 c0 -10 -2 -27 -4 -38 -2 -11 -9 -78 -15 -150 -6 -71 -13
-143 -15 -160 -2 -16 -7 -64 -10 -105 -3 -41 -8 -95 -11 -120 -7 -64 -12 -123
-20 -219 -6 -76 -5 -84 10 -78 9 4 16 2 16 -2 0 -5 10 -7 22 -3 12 3 19 1 15
-5 -3 -5 4 -9 16 -8 12 1 22 7 22 13 0 6 9 18 20 27 20 16 19 16 -2 5 -16 -7
-23 -7 -23 0 0 5 5 10 10 10 6 0 10 6 9 13 -4 30 2 48 13 41 7 -4 8 -3 4 4
-13 21 -15 51 -4 58 6 4 8 2 4 -4 -3 -6 -2 -13 3 -17 6 -3 8 6 5 21 -9 51 -7
67 7 58 8 -4 8 -1 1 12 -8 15 -6 25 9 43 10 13 17 27 14 31 -6 10 23 35 31 27
3 -3 17 -2 30 3 18 7 26 5 33 -8 10 -16 10 -15 11 2 0 20 0 20 14 0 14 -18 14
-18 13 0 -1 11 5 20 16 22 10 1 25 11 33 21 12 16 13 16 14 1 0 -9 -5 -18 -12
-20 -7 -3 -9 -14 -4 -34 l8 -29 18 23 c35 43 61 21 66 -56 1 -28 -3 -35 -31
-47 -44 -18 -69 -57 -69 -110 l0 -43 -58 -1 c-71 0 -142 -35 -175 -86 -51 -78
-55 -189 -10 -249 15 -18 23 -37 19 -40 -3 -4 2 -4 12 0 13 5 17 4 13 -3 -4
-6 3 -13 14 -16 12 -3 18 -10 14 -16 -4 -7 0 -8 11 -4 12 4 15 3 10 -5 -9 -16
7 -15 22 0 9 9 12 8 12 -5 0 -9 6 -16 13 -14 6 1 11 -4 10 -10 -2 -7 2 -13 7
-13 6 0 10 5 10 11 0 5 5 7 10 4 6 -4 8 -11 5 -16 -3 -5 0 -6 8 -3 18 7 30
-35 22 -79 -16 -80 -102 -121 -175 -84 -24 12 -25 17 -31 129 -4 85 -10 123
-23 142 -21 32 -30 33 -58 1 -22 -25 -22 -25 -30 -5 -18 50 -25 7 -25 -162 0
-101 2 -187 4 -191 9 -16 30 14 27 39 -2 25 -2 25 17 8 10 -9 16 -21 12 -27
-3 -6 -1 -7 5 -3 6 3 17 -2 24 -11 7 -10 20 -19 28 -21 8 -2 24 -11 34 -20 11
-9 16 -11 12 -5 -5 9 -2 11 8 7 9 -3 13 -11 10 -18 -3 -6 2 -2 10 8 16 20 16
20 16 0 0 -16 2 -17 10 -4 6 9 10 10 10 3 0 -12 30 -10 50 2 6 3 10 1 10 -6 0
-7 7 -4 16 7 8 10 13 14 10 9 -2 -6 4 -11 14 -11 15 0 17 3 7 15 -10 12 -8 14
11 9 14 -4 20 -2 15 5 -4 6 0 8 10 4 10 -4 16 -2 14 5 -1 7 5 12 13 13 8 0 14
8 12 17 -1 9 3 20 9 24 8 4 9 3 5 -4 -4 -7 -5 -12 -3 -12 3 0 15 17 27 37 13
22 15 32 7 24 -13 -10 -15 -9 -10 8 3 12 9 19 13 16 4 -3 10 4 13 15 3 11 1
20 -5 20 -5 0 -6 5 -3 10 4 6 10 8 14 6 3 -3 7 4 7 14 0 10 -3 17 -7 14 -4 -2
-6 7 -5 21 0 14 6 25 11 25 6 0 2 5 -7 11 -10 5 -18 19 -18 29 0 11 -4 20 -10
20 -5 0 -10 6 -10 14 0 8 -7 17 -16 20 -9 3 -12 11 -8 18 4 7 4 10 -1 6 -4 -4
-15 -2 -23 4 -8 7 -47 28 -86 48 -40 19 -71 40 -69 47 2 6 0 14 -6 17 -5 3 -7
15 -4 26 3 11 10 17 17 13 6 -4 5 0 -2 9 -10 13 -10 18 -1 24 8 4 9 3 5 -4 -4
-7 -5 -12 -2 -12 3 0 10 10 17 21 9 17 8 20 -3 13 -11 -6 -11 -5 1 9 7 9 17
14 23 11 5 -3 20 2 35 11 14 9 22 12 18 5 -4 -7 -1 -11 6 -9 31 4 50 -1 43
-12 -4 -7 -1 -10 7 -7 8 3 19 -1 26 -8 7 -7 21 -11 30 -9 10 2 27 4 38 5 12 1
15 4 7 7 -10 4 -9 9 5 20 10 8 13 12 6 9 -6 -4 -15 -1 -19 5 -4 7 -3 9 2 6 6
-3 16 -2 24 4 12 6 12 9 2 9 -7 0 -20 7 -28 15 -9 8 -12 15 -8 15 4 0 0 6 -9
13 -16 11 -16 14 -3 32 15 20 15 20 16 -2 0 -23 19 -43 21 -21 0 7 0 76 0 153
-1 135 -12 202 -35 217 -13 9 -19 61 -6 53 5 -3 15 13 21 35 7 23 21 46 31 51
13 7 16 15 10 27 -10 21 -9 113 2 130 4 7 3 18 -2 25 -5 7 -8 22 -6 35 3 14 0
21 -6 17 -9 -6 -14 11 -13 43 1 7 -1 11 -4 8 -7 -7 -43 27 -43 41 0 7 -3 12
-7 11 -5 0 -25 6 -45 15 -28 13 -68 17 -163 17 -112 0 -125 -2 -126 -17z m146
-123 c-4 -6 6 -8 24 -6 21 2 28 0 24 -8 -4 -6 1 -5 10 3 14 11 21 9 51 -22 49
-50 53 -72 23 -114 -19 -26 -23 -42 -18 -61 10 -37 4 -54 -24 -75 -23 -17 -28
-17 -71 -2 -26 9 -56 13 -68 9 -21 -6 -21 -6 -1 10 11 8 15 16 9 16 -12 0 -14
50 -2 50 3 0 4 9 1 20 -4 16 -2 19 13 14 16 -5 17 -4 3 5 -24 16 -19 112 7
122 18 7 18 8 -1 8 -17 1 -17 3 -5 11 13 9 13 10 0 10 -13 0 -13 1 0 10 19 13
33 13 25 0z m-62 -465 c-7 -21 -12 -19 -10 4 0 11 5 18 9 15 4 -3 5 -11 1 -19z
m278 -126 c6 -38 3 -58 -8 -81 -15 -31 -34 -36 -53 -13 -7 8 -10 15 -6 15 3 0
1 12 -4 26 -6 15 -6 23 -1 19 5 -3 12 4 16 15 3 11 11 20 16 20 6 0 8 4 5 9
-4 5 3 7 14 4 11 -3 21 -9 21 -14z m-371 -514 c0 -8 6 -15 13 -16 9 0 9 -2 -1
-6 -6 -2 -10 -9 -7 -13 5 -8 9 -93 6 -127 -1 -7 -7 -10 -15 -7 -8 3 -23 -4
-33 -15 -9 -12 -22 -21 -27 -21 -5 0 -6 3 -3 6 3 4 2 15 -4 25 -7 14 -6 19 2
19 8 0 8 4 1 13 -7 8 -7 18 -2 27 5 9 5 19 -1 26 -7 8 -6 14 1 19 8 5 8 11 0
20 -7 9 -6 16 5 25 8 7 15 19 15 26 0 8 10 14 25 14 16 0 25 -6 25 -15z"/>
<path d="M1873 2255 c0 -8 4 -12 9 -9 5 3 6 10 3 15 -9 13 -12 11 -12 -6z"/>
<path d="M937 2470 c-16 -5 -36 -17 -44 -27 -8 -10 -12 -12 -8 -5 13 26 -4 11
-24 -21 -21 -34 -21 -78 1 -104 36 -44 109 -66 168 -51 64 17 66 18 50 29 -12
8 -10 9 6 4 24 -6 44 13 47 44 1 12 5 21 9 21 5 0 4 8 -1 19 -6 10 -8 21 -5
23 8 9 -65 68 -84 68 -9 0 -33 2 -52 5 -19 2 -48 0 -63 -5z m17 -68 c3 -5 -1
-9 -9 -9 -8 0 -12 4 -9 9 3 4 7 8 9 8 2 0 6 -4 9 -8z m-45 -35 c8 -10 7 -14
-2 -14 -8 0 -14 6 -14 14 0 7 1 13 2 13 2 0 8 -6 14 -13z m51 -3 c0 -8 -19
-13 -24 -6 -3 5 1 9 9 9 8 0 15 -2 15 -3z m103 -39 c-3 -9 -8 -14 -10 -11 -3
3 -2 9 2 15 9 16 15 13 8 -4z"/>
<path d="M549 2333 c-1 -4 -1 -12 0 -16 1 -5 -3 -6 -8 -3 -13 8 -42 -4 -35
-15 3 -5 -2 -9 -10 -9 -9 0 -16 -4 -16 -8 0 -5 -11 -22 -25 -38 -24 -27 -29
-39 -26 -56 0 -5 -4 -8 -10 -8 -5 0 -8 -4 -5 -9 4 -5 3 -11 -2 -13 -4 -1 -15
-23 -25 -48 l-17 -45 25 27 c16 17 23 34 19 45 -5 15 -4 16 5 3 10 -13 13 -13
26 4 8 10 12 23 8 29 -3 6 -1 7 5 3 7 -4 35 15 68 48 47 48 58 54 75 46 11 -6
25 -8 31 -4 7 5 8 3 3 -6 -6 -10 -3 -12 13 -8 12 4 20 3 17 -2 -7 -11 20 -20
83 -27 45 -5 53 -3 46 8 -7 12 -5 12 9 0 12 -9 17 -10 17 -2 0 7 4 10 9 6 6
-3 15 3 20 14 13 23 -6 42 -43 45 -13 0 -22 5 -18 10 3 5 -5 7 -16 4 -12 -4
-20 -3 -17 1 5 9 -99 28 -162 30 -24 1 -44 -2 -44 -6z m-68 -120 c13 -16 12
-17 -3 -4 -10 7 -18 15 -18 17 0 8 8 3 21 -13z"/>
<path d="M1426 2301 c-10 -11 -53 -43 -97 -72 -43 -29 -79 -58 -79 -64 0 -6
-15 -11 -34 -11 -19 0 -32 4 -30 8 3 4 -8 14 -24 22 -23 12 -32 12 -41 3 -10
-9 -11 -8 -6 5 9 24 -56 38 -119 25 -33 -6 -40 -34 -13 -52 36 -23 138 -57
154 -51 8 3 11 1 8 -4 -6 -10 4 -13 58 -12 46 0 72 8 70 20 -2 6 3 9 11 6 15
-6 40 21 32 35 -4 5 -2 13 4 16 6 4 9 3 8 -2 -8 -23 17 -9 43 24 16 21 33 43
38 49 12 15 42 74 38 74 -2 0 -12 -9 -21 -19z m-72 -99 c3 -5 -1 -9 -9 -9 -8
0 -12 4 -9 9 3 4 7 8 9 8 2 0 6 -4 9 -8z m-59 -62 c3 -6 -1 -7 -9 -4 -18 7
-21 14 -7 14 6 0 13 -4 16 -10z"/>
<path d="M2170 2216 c0 -2 8 -10 18 -17 15 -13 16 -12 3 4 -13 16 -21 21 -21
13z"/>
<path d="M2336 2108 c-3 -13 -6 -39 -6 -59 0 -23 -6 -39 -14 -42 -17 -7 -15
-35 3 -46 7 -5 12 -23 10 -42 -2 -19 0 -40 5 -47 4 -6 3 -12 -3 -12 -6 0 -7
-11 -2 -27 4 -16 5 -38 2 -51 -3 -13 -4 -45 -3 -73 4 -46 6 -49 25 -43 21 6
21 6 3 -8 -13 -11 -16 -17 -7 -22 18 -12 53 4 47 20 -3 9 -1 12 4 9 11 -7 12
-3 4 19 -3 8 -11 13 -18 10 -7 -3 -21 5 -32 17 -10 13 -14 20 -8 16 8 -5 11
25 12 101 0 139 -1 132 20 132 27 0 34 11 19 28 -10 13 -9 14 2 7 10 -5 12 -4
7 3 -4 7 -18 12 -30 12 -22 0 -23 3 -20 60 3 59 -8 81 -20 38z"/>
<path d="M700 2041 c0 -5 -8 -8 -17 -7 -10 0 -17 -5 -15 -11 1 -7 -4 -13 -12
-13 -9 0 -12 -8 -8 -25 5 -26 11 -30 28 -17 5 4 -17 -18 -49 -49 -32 -31 -56
-63 -55 -70 2 -9 -4 -13 -16 -11 -13 3 -17 -1 -13 -12 3 -8 1 -18 -5 -22 -7
-4 -8 -3 -4 4 14 22 1 12 -54 -45 -30 -31 -49 -53 -41 -48 10 5 12 4 7 -3 -4
-7 -14 -12 -23 -12 -9 0 -13 -6 -9 -15 3 -8 2 -14 -2 -14 -17 3 -35 -2 -29 -7
3 -3 -6 -17 -21 -31 -15 -14 -26 -29 -24 -34 1 -5 -1 -8 -6 -7 -11 4 -67 -50
-60 -57 3 -3 13 1 22 10 9 9 16 13 16 8 0 -4 6 -1 13 8 7 8 20 18 30 22 10 4
15 11 12 17 -3 6 1 7 9 4 9 -3 16 -1 16 5 0 6 5 11 10 11 17 0 185 131 182
142 -1 5 2 7 7 3 14 -8 91 47 86 62 -2 7 2 10 9 7 7 -3 32 11 55 30 41 35 43
35 72 21 16 -9 29 -13 29 -11 0 3 18 -1 39 -9 22 -7 43 -10 47 -7 4 4 4 1 0
-6 -5 -7 -10 -11 -13 -8 -8 7 -79 -75 -75 -86 1 -5 -2 -7 -7 -4 -11 7 -93 -88
-84 -98 3 -3 1 -6 -6 -6 -7 0 -28 -16 -48 -36 -39 -41 -39 -41 34 0 29 16 50
33 47 37 -3 5 2 6 10 3 9 -3 16 -1 16 5 0 6 4 10 8 8 10 -3 122 65 122 75 0 4
7 8 16 8 10 0 14 5 10 16 -3 9 -2 12 5 9 14 -9 40 15 32 29 -3 6 -3 8 2 4 13
-12 35 12 28 29 -4 10 -2 14 4 10 16 -10 25 21 13 44 -10 17 -22 23 -42 20 -5
0 -7 4 -5 9 1 6 -16 20 -38 33 -22 12 -42 25 -45 28 -10 11 -120 51 -145 53
-14 0 -25 6 -25 11 0 6 -5 3 -10 -5 -6 -10 -10 -11 -10 -2 0 6 -4 12 -10 12
-5 0 -10 -4 -10 -9z m-30 -115 c0 -3 -4 -8 -10 -11 -5 -3 -10 -1 -10 4 0 6 5
11 10 11 6 0 10 -2 10 -4z m294 -4 c3 -5 -1 -9 -9 -9 -8 0 -12 4 -9 9 3 4 7 8
9 8 2 0 6 -4 9 -8z m-301 -37 c-3 -9 -8 -14 -10 -11 -3 3 -2 9 2 15 9 16 15
13 8 -4z m228 -2 c13 -16 12 -17 -3 -4 -10 7 -18 15 -18 17 0 8 8 3 21 -13z
m-350 -136 c-10 -9 -11 -8 -5 6 3 10 9 15 12 12 3 -3 0 -11 -7 -18z"/>
<path d="M1339 1994 c-14 -28 -27 -31 -25 -8 0 9 -4 19 -10 21 -8 3 -12 -50
-13 -181 -1 -154 1 -185 14 -189 16 -7 30 8 16 17 -5 3 -5 21 -1 41 4 19 5 37
1 39 -6 4 -6 84 -1 111 5 20 0 36 -9 31 -5 -4 1 16 14 42 21 44 50 65 53 38 0
-6 3 -20 6 -31 2 -11 5 -80 5 -152 1 -107 4 -133 15 -133 11 0 14 27 15 140 0
78 5 150 11 160 11 21 40 28 40 9 0 -5 3 -8 8 -5 4 2 7 -65 7 -149 0 -131 2
-153 15 -152 12 1 15 15 15 71 0 39 -4 76 -8 82 -3 6 -3 14 0 18 11 11 10 80
-2 88 -7 5 -7 8 1 8 6 0 9 13 6 30 -2 16 -8 27 -13 24 -5 -3 -6 1 -3 9 5 14
-20 47 -35 47 -12 0 -39 -32 -50 -60 l-10 -25 -1 25 c-1 53 -39 74 -61 34z"/>
<path d="M2250 1999 c-6 -10 -8 -23 -6 -28 3 -5 0 -11 -8 -14 -9 -4 -13 2 -13
19 0 27 -9 41 -19 31 -8 -8 -10 -225 -2 -233 4 -3 3 -16 -1 -28 -6 -17 -7 -61
-2 -98 1 -5 7 -8 15 -8 12 0 15 20 14 103 0 163 0 164 28 194 14 15 22 22 18
14 -5 -9 -3 -12 4 -7 17 10 15 63 -3 70 -9 3 -19 -3 -25 -15z"/>
<path d="M2490 2000 c-30 -30 -23 -58 10 -40 30 16 40 -29 40 -180 0 -120 2
-140 15 -140 14 0 16 22 15 158 -1 91 -6 162 -12 170 -6 6 -8 12 -4 12 3 0 -2
9 -11 20 -10 11 -21 20 -25 20 -5 0 -17 -9 -28 -20z"/>
<path d="M2657 2008 c-10 -5 -15 -13 -12 -19 4 -5 2 -9 -4 -9 -29 0 -46 -204
-20 -237 8 -10 9 -14 2 -10 -9 6 -10 0 -4 -21 23 -77 69 -103 107 -59 25 29
23 77 -2 56 -8 -6 -12 -15 -9 -19 3 -5 -7 -5 -22 -1 -31 8 -48 37 -57 94 -6
41 -8 40 67 37 l47 -1 0 44 c0 27 -5 47 -12 50 -8 4 -9 6 -2 6 9 1 8 10 0 36
-20 56 -45 73 -79 53z m62 -93 c9 -32 8 -40 -7 -51 -9 -7 -19 -9 -22 -5 -3 4
-13 7 -22 8 -32 1 -35 3 -33 21 3 26 25 76 37 83 16 10 35 -12 47 -56z"/>
<path d="M2849 2013 c-1 -5 -1 -11 0 -15 0 -5 -4 -8 -10 -8 -5 0 -7 -4 -4 -10
3 -5 2 -10 -4 -10 -5 0 -13 -9 -16 -21 -4 -11 -9 -19 -11 -16 -3 2 0 15 5 29
9 25 -2 59 -15 46 -4 -4 -7 -87 -7 -185 0 -147 2 -178 14 -181 11 -2 14 21 15
127 1 104 4 135 18 155 9 14 23 26 31 26 12 0 14 12 6 63 0 4 -5 7 -11 7 -5 0
-11 -3 -11 -7z"/>
<path d="M1547 1983 c3 -15 6 -34 6 -40 0 -7 3 -13 6 -13 3 0 7 -19 8 -41 1
-23 5 -49 9 -58 3 -9 8 -29 10 -46 3 -16 9 -56 15 -88 5 -31 8 -61 5 -66 -7
-11 -20 -85 -31 -173 -2 -15 3 -32 10 -38 19 -15 26 1 24 52 -2 51 6 109 21
158 15 52 13 70 -7 64 -11 -3 -9 0 3 7 15 7 24 24 28 52 3 23 9 53 12 66 6 19
4 22 -7 16 -8 -5 -5 2 6 14 11 13 18 24 16 25 -2 0 -1 17 2 36 18 99 18 100 1
100 -12 0 -15 -7 -12 -25 3 -13 2 -22 -2 -20 -4 3 -10 -14 -13 -38 -3 -23 -11
-69 -17 -102 -6 -33 -12 -66 -12 -72 -2 -25 -12 -2 -15 34 -1 19 -8 43 -15 51
-7 9 -8 13 -3 10 7 -4 5 25 -5 75 -12 60 -20 83 -32 85 -14 3 -16 -2 -11 -25z"/>
<path d="M2432 1980 c1 -17 5 -33 10 -36 4 -3 5 -11 1 -17 -13 -20 -10 -287 3
-287 16 0 25 41 13 56 -7 8 -6 14 1 19 8 5 8 11 1 19 -7 9 -7 16 1 24 9 9 9
12 -1 12 -7 0 -9 5 -5 12 11 18 13 68 2 74 -5 3 -5 11 2 19 8 10 8 15 0 20 -8
5 -6 13 5 25 15 17 16 21 2 41 -9 12 -13 28 -10 35 3 8 -1 14 -10 14 -11 0
-15 -9 -15 -30z"/>
<path d="M1870 1941 c0 -9 38 -12 44 -3 2 4 -7 8 -20 8 -13 1 -24 -1 -24 -5z"/>
<path d="M1826 1818 c3 -5 10 -6 15 -3 13 9 11 12 -6 12 -8 0 -12 -4 -9 -9z"/>
<path d="M1805 1701 c-3 -5 -2 -12 3 -15 5 -3 9 1 9 9 0 17 -3 19 -12 6z"/>
<path d="M2655 1450 c-4 -6 -1 -18 7 -27 7 -9 8 -14 1 -10 -8 5 -11 -6 -10
-37 1 -28 -2 -42 -9 -39 -19 7 -27 -30 -10 -43 13 -9 16 -36 16 -153 0 -83 4
-140 9 -137 5 4 7 -4 3 -16 -4 -17 -2 -20 12 -15 10 4 15 3 11 -3 -3 -6 1 -10
9 -10 19 0 38 33 30 53 -3 9 -13 13 -25 10 -12 -3 -19 0 -20 8 0 8 -1 71 -2
140 -2 98 1 125 11 122 6 -3 19 -2 28 1 14 5 14 9 3 23 -12 14 -12 16 0 8 10
-5 12 -4 7 3 -4 7 -16 12 -27 12 -10 0 -19 5 -19 11 0 5 -6 7 -12 3 -10 -6
-10 -4 -2 7 14 18 17 86 5 93 -5 4 -13 2 -16 -4z"/>
<path d="M1167 1413 c-21 -24 -22 -37 -1 -29 8 3 12 2 9 -4 -3 -6 -13 -10 -21
-10 -19 0 -18 -13 5 -39 14 -16 21 -18 24 -9 4 8 6 7 6 -4 1 -20 16 -24 26 -8
4 6 11 8 16 5 13 -9 36 17 33 38 -1 9 3 17 9 17 7 0 3 7 -7 15 -11 8 -16 15
-10 15 11 1 -26 30 -39 30 -4 0 -5 -10 -1 -22 l7 -23 -19 23 c-19 23 -20 23
-37 5z m28 -13 c-3 -4 0 -10 7 -12 9 -3 6 -12 -8 -30 -15 -19 -22 -22 -31 -13
-8 9 -6 15 9 24 20 12 15 36 -5 24 -7 -4 -6 0 2 10 13 16 36 14 26 -3z m53 2
c0 -4 1 -9 2 -12 8 -22 6 -42 -6 -47 -8 -3 -11 -10 -7 -17 3 -6 3 -8 -2 -4 -4
4 -15 2 -23 -5 -11 -8 -14 -8 -9 0 4 6 2 13 -5 15 -7 3 -4 15 11 35 13 17 20
36 17 42 -4 7 -1 9 8 5 9 -3 15 -9 14 -12z"/>
<path d="M1179 1363 c-13 -16 -12 -17 4 -4 9 7 17 15 17 17 0 8 -8 3 -21 -13z"/>
<path d="M1217 1365 c-20 -28 -10 -39 18 -19 13 10 15 14 4 14 -11 0 -12 2 0
9 7 5 9 11 5 14 -5 3 -17 -6 -27 -18z"/>
<path d="M2210 1330 c-11 -11 -20 -24 -20 -30 0 -5 -4 -10 -8 -10 -5 0 -8 8
-8 18 1 9 -3 19 -9 22 -6 3 -10 -48 -11 -142 -1 -104 2 -145 10 -141 8 5 8 3
0 -8 -6 -8 -11 -23 -11 -34 0 -11 5 -26 11 -34 7 -9 7 -12 1 -9 -7 4 -11 -16
-11 -58 -1 -44 3 -64 11 -64 15 0 26 48 13 56 -4 3 -5 10 -1 17 9 14 9 58 -1
83 -4 12 2 8 17 -11 22 -26 27 -28 49 -18 18 8 29 26 39 60 14 51 17 218 4
249 -4 11 -9 25 -11 32 -3 17 -24 42 -35 42 -5 0 -18 -9 -29 -20z m46 -69 c4
-14 8 -58 9 -97 1 -39 5 -76 10 -84 5 -9 4 -11 -3 -6 -11 6 -17 -12 -13 -36 1
-8 -34 -17 -59 -16 -13 1 -16 18 -15 105 0 62 -4 103 -10 103 -6 0 -6 3 1 8
11 7 28 42 26 53 -1 3 10 4 23 2 15 -3 26 -15 31 -32z"/>
<path d="M2390 1340 c-15 -4 -24 -13 -24 -23 1 -9 -3 -15 -8 -14 -10 2 -13 -7
-24 -73 -9 -58 -11 -100 -5 -100 4 0 5 -19 3 -41 -3 -23 0 -39 4 -36 5 3 10
-9 10 -26 1 -32 33 -67 61 -67 21 0 46 28 37 41 -4 7 -3 9 4 5 11 -7 37 95 29
117 -2 6 0 20 5 30 5 9 5 17 1 17 -4 0 -8 19 -7 43 0 23 -4 48 -10 56 -6 7
-11 21 -11 30 0 9 -6 15 -13 13 -8 -1 -11 2 -8 7 10 15 -18 28 -44 21z m58
-183 c0 -104 -10 -134 -47 -139 -22 -3 -26 0 -28 20 0 14 -5 27 -10 31 -5 3
-7 44 -5 91 4 109 5 119 13 114 4 -2 13 3 20 12 12 14 15 13 35 -12 19 -24 22
-39 22 -117z"/>
<path d="M2576 1334 c-9 -8 -16 -23 -16 -31 0 -9 -3 -13 -7 -9 -4 4 -8 15 -8
23 0 9 -5 18 -11 20 -8 3 -11 -24 -11 -85 0 -49 -3 -94 -7 -100 -4 -7 -3 -12
1 -12 7 0 9 -44 3 -60 -1 -3 -1 -9 0 -15 7 -32 6 -56 -1 -61 -5 -3 -4 -14 1
-25 20 -37 27 -9 29 116 2 152 11 183 54 176 10 -2 9 67 -2 74 -5 3 -17 -2
-25 -11z"/>
<path d="M1047 1332 c-4 -5 -16 -8 -27 -5 -11 3 -20 1 -20 -5 0 -6 -9 -9 -19
-7 -24 4 -64 -23 -55 -37 5 -7 2 -9 -8 -5 -10 3 -25 -4 -39 -19 -12 -13 -17
-24 -11 -24 7 0 12 5 12 12 0 6 3 8 7 5 3 -4 12 -2 19 3 13 12 48 21 82 23 12
1 22 4 22 7 0 3 9 6 20 7 11 1 20 -3 20 -8 0 -6 5 -7 11 -4 6 4 8 14 5 24 -5
12 -2 11 9 -3 8 -11 15 -14 15 -8 0 7 0 14 0 17 0 3 -2 4 -5 3 -2 -2 -10 6
-18 16 -9 12 -16 15 -20 8z m10 -20 c0 -11 -10 -18 -26 -19 -24 -1 -53 -6 -76
-15 -5 -1 -10 2 -10 7 0 6 6 9 13 7 8 -2 11 1 8 7 -4 6 3 8 18 5 14 -2 27 0
31 5 3 6 12 8 20 4 8 -3 15 0 15 6 0 6 2 11 4 11 3 0 4 -8 3 -18z"/>
<path d="M1579 1318 c0 -13 -2 -31 -4 -40 -2 -10 1 -18 6 -18 6 0 7 -5 3 -12
-9 -14 -8 -184 1 -199 4 -5 1 -9 -4 -9 -6 0 -11 5 -11 10 0 6 -5 10 -10 10 -6
0 -3 -11 6 -25 9 -14 14 -34 11 -44 -6 -24 19 -36 27 -15 9 22 7 26 -6 18 -8
-5 -8 -3 -2 7 13 20 13 113 0 121 -8 6 -8 8 0 8 6 0 12 11 12 25 0 14 -5 22
-11 18 -6 -4 -7 -1 -1 8 13 20 14 120 1 112 -6 -4 -7 -1 -1 8 14 23 13 39 -2
39 -8 0 -14 -10 -15 -22z"/>
<path d="M1494 1306 c4 -20 0 -34 -12 -43 -9 -8 -11 -11 -3 -7 9 4 21 -2 33
-17 11 -13 17 -18 13 -12 -3 7 -8 22 -11 33 -2 11 -6 30 -9 41 -7 33 -17 37
-11 5z"/>
<path d="M611 1297 c2 -1 11 -8 21 -15 12 -10 18 -10 24 -1 4 7 3 9 -4 5 -6
-3 -13 -2 -17 4 -3 5 -11 10 -17 10 -6 0 -9 -1 -7 -3z"/>
<path d="M1246 1271 c-13 -20 43 -54 92 -57 18 -1 35 2 37 7 3 4 15 6 26 4 20
-4 59 13 59 26 0 4 -9 5 -20 2 -11 -3 -17 -10 -13 -15 3 -6 0 -8 -8 -6 -8 3
-13 10 -12 15 1 6 -12 10 -30 10 -18 -1 -39 3 -46 8 -18 11 -80 15 -85 6z m83
-15 c7 -4 10 -13 8 -19 -6 -19 -34 -15 -63 8 l-29 23 36 -2 c19 -2 41 -6 48
-10z m42 -15 c7 12 10 12 21 0 8 -9 9 -11 1 -7 -6 3 -14 2 -18 -4 -8 -13 -25
-3 -24 13 0 8 3 7 6 -2 5 -11 7 -11 14 0z"/>
<path d="M1285 1248 c26 -16 45 -19 45 -7 0 5 -3 9 -7 10 -5 0 -19 2 -33 5
-23 3 -24 3 -5 -8z"/>
<path d="M690 1259 c0 -5 5 -7 10 -4 6 3 10 8 10 11 0 2 -4 4 -10 4 -5 0 -10
-5 -10 -11z"/>
<path d="M748 1240 c7 -8 16 -15 20 -15 4 -1 18 -6 32 -14 l25 -12 -25 20
c-14 11 -27 18 -29 15 -2 -2 -11 2 -20 8 -14 10 -14 10 -3 -2z"/>
<path d="M843 1213 c-7 -2 -13 -10 -13 -15 0 -6 3 -8 6 -5 4 3 16 2 28 -4 19
-9 19 -9 4 4 -10 8 -15 17 -11 20 7 8 4 8 -14 0z"/>
<path d="M1521 1205 c1 -19 18 -51 18 -35 0 8 -4 22 -9 30 -5 8 -9 11 -9 5z"/>
<path d="M1530 1139 c0 -5 5 -7 10 -4 6 3 10 8 10 11 0 2 -4 4 -10 4 -5 0 -10
-5 -10 -11z"/>
<path d="M1547 1118 c-6 -19 8 -54 16 -41 4 7 3 14 -2 18 -6 3 -8 12 -4 20 3
8 3 15 0 15 -3 0 -7 -6 -10 -12z"/>
<path d="M1050 1099 c0 -5 -4 -8 -9 -4 -10 6 -24 -11 -27 -32 -1 -7 2 -13 7
-13 6 0 7 -4 4 -10 -4 -6 1 -7 12 -3 15 5 14 2 -5 -19 -20 -22 -21 -26 -7 -38
14 -11 19 -7 16 12 0 4 7 4 16 1 12 -5 15 -2 10 10 -4 10 1 21 11 27 13 9 14
11 1 7 -9 -3 -16 1 -16 9 0 7 4 11 9 8 9 -6 38 14 38 26 0 6 -44 30 -55 30 -3
0 -5 -5 -5 -11z m47 -26 c-3 -2 -13 -6 -24 -8 -10 -1 -17 -8 -16 -13 2 -6 -4
-9 -12 -6 -8 4 -15 10 -15 15 0 5 0 12 0 17 0 4 4 7 9 7 5 0 13 3 16 7 4 4 16
3 27 -3 11 -6 17 -13 15 -16z m-40 -57 c0 -8 -5 -14 -11 -13 -6 1 -10 -4 -8
-11 1 -8 -2 -11 -8 -7 -8 5 -6 13 6 26 21 23 21 23 21 5z"/>
<path d="M1055 1080 c-4 -6 -11 -7 -17 -4 -7 4 -8 2 -4 -5 6 -8 12 -9 20 -2 7
6 17 7 21 3 5 -4 5 -1 1 6 -9 15 -13 15 -21 2z"/>
<path d="M1122 1085 c4 -5 0 -14 -10 -21 -9 -7 -18 -17 -18 -23 -1 -6 -2 -16
-3 -22 0 -5 -5 -7 -11 -4 -5 3 -7 0 -4 -9 3 -9 -3 -19 -16 -26 -11 -6 -18 -16
-14 -22 4 -5 -5 -3 -18 6 -23 15 -26 15 -39 0 -8 -10 -14 -20 -14 -23 0 -3 -4
-5 -8 -3 -5 1 -6 -2 -3 -6 3 -5 -3 -17 -14 -27 -11 -10 -20 -22 -20 -26 0 -4
-11 -20 -25 -35 -14 -15 -23 -29 -20 -32 2 -3 -3 -11 -13 -19 -16 -13 -15 -13
3 -4 11 5 36 24 55 40 19 17 38 31 42 31 5 0 7 6 5 13 -1 6 4 11 11 9 7 -1 15
5 18 13 3 8 10 12 15 9 5 -3 6 3 2 12 -5 13 -3 15 7 9 9 -6 11 -4 5 5 -6 10
-4 12 10 7 14 -6 16 -3 12 13 -3 11 -1 20 4 20 5 0 9 -6 9 -12 1 -7 9 -3 18 8
16 19 21 20 43 9 13 -7 27 -11 30 -9 8 4 21 -23 24 -49 1 -10 -2 -20 -6 -23
-4 -2 -6 -13 -4 -24 2 -11 -1 -20 -7 -20 -6 0 -8 -3 -5 -6 4 -4 12 -3 20 2 7
5 6 2 -3 -6 -16 -15 -23 -50 -10 -50 9 0 46 82 43 92 -2 5 2 8 8 8 5 0 7 5 4
10 -3 6 -1 10 4 10 6 0 10 3 10 8 -1 4 0 9 1 12 12 31 3 54 -33 86 -23 19 -44
34 -49 34 -5 0 -8 8 -6 17 2 11 -5 19 -17 21 -11 2 -17 1 -13 -3z m34 -43 c16
-8 20 -18 16 -38 -3 -19 -1 -25 7 -20 6 4 9 11 6 16 -3 5 -1 11 3 14 12 7 48
-35 46 -54 -1 -24 -26 -70 -38 -70 -6 0 -5 -4 2 -9 11 -7 11 -9 -1 -14 -13 -5
-16 9 -7 33 11 27 -14 85 -31 74 -5 -3 -9 0 -9 7 0 7 -3 9 -6 6 -4 -3 -15 -2
-25 4 -15 7 -21 6 -25 -6 -3 -8 -11 -15 -17 -15 -5 0 -2 9 9 21 10 12 20 30
20 40 1 10 2 21 3 23 2 7 24 1 47 -12z m-142 -117 c-9 -14 -21 -21 -30 -18 -8
3 -14 2 -12 -3 4 -12 -20 -43 -57 -74 -21 -18 -25 -20 -15 -5 8 11 24 28 35
37 11 10 16 17 11 18 -6 0 5 16 24 35 19 19 31 35 26 35 -4 0 -4 5 -1 10 5 8
11 7 21 0 11 -10 11 -15 -2 -35z"/>
<path d="M1114 1024 c0 -12 4 -20 8 -18 4 3 8 -1 8 -8 0 -10 2 -10 9 1 5 7 11
9 13 5 3 -5 3 -3 2 4 -2 6 2 12 9 12 13 1 -21 23 -38 26 -6 1 -11 -9 -11 -22z
m30 -5 c-3 -5 -10 -7 -15 -3 -5 3 -7 10 -3 15 3 5 10 7 15 3 5 -3 7 -10 3 -15z"/>
<path d="M1193 1003 c4 -6 3 -14 -3 -18 -7 -4 -6 -14 2 -28 7 -12 11 -29 9
-37 -2 -10 3 -8 12 5 17 22 13 39 -6 29 -7 -3 -4 1 5 9 17 13 17 15 -4 33 -12
10 -18 14 -15 7z"/>
<path d="M1002 955 c4 -4 3 -14 -4 -22 -6 -7 -9 -15 -7 -18 3 -2 10 4 17 15 9
15 9 21 -1 26 -6 4 -9 4 -5 -1z"/>
<path d="M2382 815 c15 -16 20 -17 30 -6 11 11 10 13 0 7 -7 -4 -21 -2 -30 5
-15 12 -15 11 0 -6z"/>
<path d="M2330 805 c-7 -8 -17 -12 -22 -9 -6 4 -6 -2 1 -13 6 -11 7 -24 3 -29
-4 -5 1 -2 11 5 19 15 24 26 6 15 -7 -4 -10 -1 -7 7 3 8 15 13 26 11 12 -2 22
1 22 7 0 6 -7 7 -17 4 -11 -4 -14 -3 -9 5 10 17 1 15 -14 -3z"/>
<path d="M2422 794 c-6 -7 -20 -11 -30 -8 -14 5 -14 4 -3 -4 10 -7 21 -7 34
-1 15 9 18 7 15 -8 -2 -9 3 -18 10 -19 6 -1 17 -2 23 -3 5 0 8 -5 5 -9 -3 -5
2 -9 11 -9 12 0 10 6 -9 21 -14 12 -29 28 -34 37 -8 14 -11 15 -22 3z"/>
<path d="M2150 790 c0 -5 5 -10 10 -10 6 0 10 5 10 10 0 6 -4 10 -10 10 -5 0
-10 -4 -10 -10z"/>
<path d="M2285 773 c3 -3 -1 -13 -8 -21 -9 -13 -9 -14 1 -8 6 4 12 2 12 -3 0
-6 5 -11 11 -11 8 0 7 6 -2 17 -8 9 -12 18 -11 20 2 3 1 7 -2 9 -3 2 -4 1 -1
-3z"/>
<path d="M2139 753 c-11 -15 -11 -16 1 -5 12 10 18 7 37 -14 13 -15 23 -23 23
-18 -1 10 -35 54 -43 54 -2 0 -11 -8 -18 -17z"/>
<path d="M1304 736 c-3 -7 -16 -12 -30 -10 -14 1 -23 0 -20 -4 14 -13 48 -8
57 10 5 10 7 18 4 18 -3 0 -8 -6 -11 -14z"/>
<path d="M1456 735 c-11 -8 -15 -15 -9 -15 6 0 16 7 23 15 16 19 11 19 -14 0z"/>
<path d="M2153 722 c0 -12 3 -19 6 -17 2 3 11 -1 20 -7 10 -8 8 -3 -4 12 -11
14 -21 27 -22 29 -1 2 -1 -6 0 -17z"/>
<path d="M655 720 c5 -8 42 -6 50 1 2 3 -8 5 -25 5 -16 0 -27 -3 -25 -6z"/>
<path d="M725 720 c-3 -6 1 -7 9 -4 18 7 21 14 7 14 -6 0 -13 -4 -16 -10z"/>
<path d="M836 718 c3 -5 10 -6 15 -3 13 9 11 12 -6 12 -8 0 -12 -4 -9 -9z"/>
<path d="M895 720 c5 -8 42 -6 50 1 2 3 -8 5 -25 5 -16 0 -27 -3 -25 -6z"/>
<path d="M1016 718 c3 -4 11 -5 19 -1 21 7 19 12 -4 10 -11 0 -18 -5 -15 -9z"/>
<path d="M1096 719 c4 -7 44 0 44 7 0 2 -11 3 -24 2 -14 -1 -23 -5 -20 -9z"/>
<path d="M1176 718 c3 -4 11 -5 19 -1 21 7 19 12 -4 10 -11 0 -18 -5 -15 -9z"/>
<path d="M1345 720 c3 -5 8 -10 11 -10 2 0 4 5 4 10 0 6 -5 10 -11 10 -5 0 -7
-4 -4 -10z"/>
<path d="M1375 720 c5 -8 42 -6 50 1 2 3 -8 5 -25 5 -16 0 -27 -3 -25 -6z"/>
<path d="M2261 721 c-10 -6 -9 -10 3 -14 8 -3 18 -2 21 3 8 13 -9 20 -24 11z"/>
<path d="M2228 682 c-12 -15 -11 -16 5 -3 9 7 17 9 17 3 0 -14 -26 -33 -41
-30 -7 2 -14 -3 -15 -9 -3 -27 -5 -28 -15 -13 -7 10 -9 11 -7 2 2 -8 7 -13 12
-12 5 1 13 -4 18 -12 7 -10 8 -8 4 5 -4 12 2 21 17 28 32 14 51 45 32 53 -7 2
-19 -3 -27 -12z"/>
<path d="M1990 640 c0 -5 5 -10 10 -10 6 0 10 5 10 10 0 6 -4 10 -10 10 -5 0
-10 -4 -10 -10z"/>
<path d="M1966 625 c4 -8 11 -15 16 -15 6 0 5 6 -2 15 -7 8 -14 15 -16 15 -2
0 -1 -7 2 -15z"/>
<path d="M2020 625 c-10 -12 -10 -21 -1 -38 11 -21 11 -21 6 -1 -3 13 1 29 10
38 9 9 12 16 7 16 -5 0 -15 -7 -22 -15z"/>
<path d="M2230 630 c-8 -5 -12 -11 -9 -14 2 -3 11 -1 19 4 8 5 12 11 9 14 -2
3 -11 1 -19 -4z"/>
<path d="M2051 617 c-17 -17 -13 -26 8 -24 15 1 17 4 9 14 -12 15 3 18 18 3 7
-7 11 -7 11 3 0 16 -31 19 -46 4z"/>
<path d="M2130 619 c0 -5 5 -7 10 -4 6 3 10 8 10 11 0 2 -4 4 -10 4 -5 0 -10
-5 -10 -11z"/>
<path d="M2257 617 c-4 -12 -2 -14 11 -10 15 6 16 5 2 -12 -11 -14 -11 -17 -1
-11 8 5 16 3 22 -5 7 -11 10 -12 21 -1 8 8 8 12 2 10 -6 -2 -20 8 -31 21 -17
20 -21 22 -26 8z"/>
<path d="M2566 602 c-3 -5 1 -9 9 -9 8 0 12 4 9 9 -3 4 -7 8 -9 8 -2 0 -6 -4
-9 -8z"/>
<path d="M1980 566 c7 -7 13 -7 20 0 6 6 3 10 -10 10 -13 0 -16 -4 -10 -10z"/>
<path d="M2541 564 c0 -11 3 -14 6 -6 3 7 2 16 -1 19 -3 4 -6 -2 -5 -13z"/>
<path d="M1927 545 c3 -8 9 -12 14 -9 12 7 11 11 -5 17 -10 4 -13 1 -9 -8z"/>
<path d="M2371 553 c-1 -18 13 -23 29 -11 12 8 12 9 -2 5 -9 -3 -19 -1 -22 6
-3 9 -5 9 -5 0z"/>
<path d="M2507 549 c7 -7 15 -10 18 -7 3 3 -2 9 -12 12 -14 6 -15 5 -6 -5z"/>
<path d="M2426 535 c-11 -8 -15 -15 -9 -15 6 0 16 7 23 15 16 19 11 19 -14 0z"/>
<path d="M2464 534 c-18 -15 -18 -15 2 -5 12 6 25 7 29 3 5 -4 5 -1 1 6 -9 15
-8 15 -32 -4z"/>
</g>
</svg>
